<?xml version="1.0" encoding="utf-8"?>
<!-- Generator: Adobe Illustrator 23.1.1, SVG Export Plug-In . SVG Version: 6.00 Build 0)  -->
<svg version="1.1" id="图层_1" xmlns="http://www.w3.org/2000/svg" xmlns:xlink="http://www.w3.org/1999/xlink" x="0px" y="0px"
	 viewBox="0 0 837 82.8" style="enable-background:new 0 0 837 82.8;" xml:space="preserve">
<style type="text/css">
	.st0{fill:#FFFFFF;}
</style>
<g>
	<path d="M20.4,2.2v78.4H0V2.2H20.4z"/>
	<path d="M34.7,80.6V2.2h20.4l37.7,48v-48h20.3v78.4H92.8l-37.7-48v48H34.7z"/>
	<path d="M157.2,19.5v61.2h-20.4V19.5H120V2.2h53.9v17.3H157.2z"/>
	<path class="st0" d="M246.1,80.6h-25.4l-19.4-30.2v30.2h-20.4V2.2h31.7c4.4,0,8.2,0.6,11.4,1.9c3.3,1.3,5.9,3,8.1,5.3
		c2.1,2.2,3.7,4.8,4.8,7.7s1.6,6,1.6,9.4c0,6-1.4,10.8-4.3,14.5c-2.9,3.7-7.1,6.2-12.7,7.5L246.1,80.6z M201.3,37.2h3.8
		c4,0,7.1-0.8,9.3-2.5c2.1-1.7,3.2-4.1,3.2-7.2c0-3.1-1.1-5.5-3.2-7.2c-2.2-1.7-5.2-2.5-9.3-2.5h-3.8V37.2z"/>
	<path class="st0" d="M249,41.4c0-5.8,1.1-11.2,3.2-16.3c2.1-5,5.1-9.4,8.9-13.2c3.8-3.7,8.4-6.7,13.7-8.8C280.2,1.1,286,0,292.4,0
		c6.3,0,12.1,1.1,17.5,3.2c5.3,2.1,9.9,5,13.8,8.8c3.8,3.7,6.8,8.1,9,13.2c2.1,5,3.2,10.5,3.2,16.3c0,5.8-1.1,11.3-3.2,16.3
		c-2.2,5-5.1,9.4-9,13.2c-3.8,3.7-8.4,6.7-13.8,8.8c-5.3,2.1-11.2,3.2-17.5,3.2c-6.4,0-12.2-1.1-17.5-3.2s-9.9-5-13.7-8.8
		c-3.8-3.7-6.8-8.1-8.9-13.2C250.1,52.7,249,47.2,249,41.4z M270.3,41.4c0,3.1,0.6,6,1.8,8.6c1.2,2.6,2.8,4.9,4.8,6.9
		c2,1.9,4.4,3.5,7,4.5c2.7,1.1,5.5,1.6,8.5,1.6c3,0,5.8-0.5,8.5-1.6c2.7-1.1,5-2.6,7.1-4.5c2-1.9,3.7-4.2,4.8-6.9
		c1.2-2.6,1.8-5.5,1.8-8.6c0-3.1-0.6-6-1.8-8.6c-1.2-2.6-2.8-4.9-4.8-6.9c-2-1.9-4.4-3.4-7.1-4.5c-2.7-1.1-5.5-1.6-8.5-1.6
		c-3,0-5.8,0.5-8.5,1.6s-5,2.6-7,4.5c-2,1.9-3.6,4.2-4.8,6.9C270.9,35.4,270.3,38.3,270.3,41.4z"/>
	<path class="st0" d="M346.7,2.2h30.2c5.3,0,10.4,1.1,15,3.2c4.7,2.2,8.8,5,12.3,8.6c3.5,3.6,6.3,7.7,8.3,12.5c2,4.8,3,9.7,3,14.9
		c0,5.1-1,10.1-3,14.8c-2,4.8-4.7,8.9-8.2,12.5c-3.5,3.6-7.6,6.5-12.3,8.6c-4.7,2.2-9.7,3.2-15.1,3.2h-30.2V2.2z M367.1,63.3h4.7
		c3.5,0,6.7-0.6,9.5-1.7c2.8-1.1,5.1-2.6,7-4.6c1.9-1.9,3.4-4.2,4.4-6.9c1-2.7,1.5-5.6,1.5-8.8c0-3.1-0.5-6-1.6-8.7
		c-1-2.7-2.5-5-4.4-7c-1.9-1.9-4.2-3.5-7-4.6c-2.8-1.1-5.9-1.7-9.4-1.7h-4.7V63.3z"/>
	<path class="st0" d="M446.7,2.2v42.6c0,2.3,0.1,4.6,0.3,7c0.2,2.4,0.7,4.6,1.6,6.5c0.9,1.9,2.2,3.5,4.1,4.7
		c1.9,1.2,4.5,1.8,7.9,1.8c3.4,0,6-0.6,7.9-1.8c1.8-1.2,3.2-2.8,4.1-4.7c0.9-1.9,1.4-4.1,1.6-6.5c0.2-2.4,0.3-4.7,0.3-7V2.2h20.3
		v45.5c0,12.2-2.8,21.1-8.4,26.7c-5.6,5.6-14.2,8.4-25.7,8.4c-11.6,0-20.2-2.8-25.8-8.4c-5.6-5.6-8.4-14.5-8.4-26.7V2.2H446.7z"/>
	<path class="st0" d="M565.5,28.4c-4.7-5.8-10.5-8.6-17.5-8.6c-3.1,0-5.9,0.6-8.5,1.7c-2.6,1.1-4.8,2.6-6.7,4.5
		c-1.9,1.9-3.3,4.2-4.4,6.8c-1.1,2.6-1.6,5.5-1.6,8.5c0,3.1,0.5,6,1.6,8.6c1.1,2.6,2.6,4.9,4.5,6.9c1.9,1.9,4.1,3.5,6.7,4.6
		c2.6,1.1,5.3,1.7,8.3,1.7c6.5,0,12.4-2.8,17.6-8.3v24.1l-2.1,0.7c-3.1,1.1-6,1.9-8.7,2.4c-2.7,0.5-5.4,0.8-8,0.8
		c-5.4,0-10.6-1-15.5-3.1c-5-2-9.3-4.9-13.1-8.6c-3.8-3.7-6.8-8.1-9.1-13.2c-2.3-5.1-3.4-10.7-3.4-16.7c0-6,1.1-11.6,3.4-16.6
		c2.3-5,5.3-9.4,9.1-13c3.8-3.6,8.2-6.5,13.2-8.5c5-2,10.2-3.1,15.7-3.1c3.1,0,6.2,0.3,9.2,1c3,0.7,6.2,1.7,9.5,3.1V28.4z"/>
	<path class="st0" d="M606.1,19.5v61.2h-20.4V19.5H569V2.2h53.9v17.3H606.1z"/>
	<path class="st0" d="M650.2,2.2v78.4h-20.4V2.2H650.2z"/>
	<path d="M661,41.4c0-5.8,1.1-11.2,3.2-16.3c2.1-5,5.1-9.4,8.9-13.2c3.8-3.7,8.4-6.7,13.7-8.8C692.2,1.1,698,0,704.4,0
		c6.3,0,12.1,1.1,17.5,3.2c5.3,2.1,9.9,5,13.8,8.8c3.8,3.7,6.8,8.1,9,13.2c2.1,5,3.2,10.5,3.2,16.3c0,5.8-1.1,11.3-3.2,16.3
		c-2.2,5-5.1,9.4-9,13.2c-3.8,3.7-8.4,6.7-13.8,8.8c-5.3,2.1-11.2,3.2-17.5,3.2c-6.4,0-12.2-1.1-17.5-3.2s-9.9-5-13.7-8.8
		c-3.8-3.7-6.8-8.1-8.9-13.2C662.1,52.7,661,47.2,661,41.4z M682.3,41.4c0,3.1,0.6,6,1.8,8.6c1.2,2.6,2.8,4.9,4.8,6.9
		c2,1.9,4.4,3.5,7,4.5c2.7,1.1,5.5,1.6,8.5,1.6c3,0,5.8-0.5,8.5-1.6c2.7-1.1,5-2.6,7.1-4.5c2-1.9,3.7-4.2,4.8-6.9
		c1.2-2.6,1.8-5.5,1.8-8.6c0-3.1-0.6-6-1.8-8.6c-1.2-2.6-2.8-4.9-4.8-6.9c-2-1.9-4.4-3.4-7.1-4.5c-2.7-1.1-5.5-1.6-8.5-1.6
		c-3,0-5.8,0.5-8.5,1.6s-5,2.6-7,4.5c-2,1.9-3.6,4.2-4.8,6.9C682.9,35.4,682.3,38.3,682.3,41.4z"/>
	<path d="M758.7,80.6V2.2h20.4l37.7,48v-48H837v78.4h-20.3l-37.7-48v48H758.7z"/>
</g>
</svg>
